<svg width="400" height="400" viewBox="0 0 400 400" xmlns="http://www.w3.org/2000/svg">
  <!-- Background -->
  <rect width="400" height="400" fill="#f5f5f5"/>
  
  <!-- Face -->
  <circle cx="200" cy="180" r="100" fill="#ffd0b3"/>
  
  <!-- Hair -->
  <path d="M130 120 Q200 80 270 120 L270 160 Q200 180 130 160 Z" fill="#654321"/>
  
  <!-- Eyes -->
  <ellipse cx="160" cy="160" rx="12" ry="8" fill="#ffffff" stroke="#000000" stroke-width="2"/>
  <ellipse cx="240" cy="160" rx="12" ry="8" fill="#ffffff" stroke="#000000" stroke-width="2"/>
  <circle cx="160" cy="160" r="4" fill="#333333"/>
  <circle cx="240" cy="160" r="4" fill="#333333"/>
  
  <!-- Nose -->
  <path d="M200 170 Q210 190 200 200" fill="none" stroke="#000000" stroke-width="2"/>
  
  <!-- Mouth (neutral) -->
  <path d="M170 220 Q200 230 230 220" fill="none" stroke="#000000" stroke-width="2"/>
  
  <!-- Eyebrows -->
  <path d="M145 145 Q160 135 175 145" fill="none" stroke="#000000" stroke-width="2"/>
  <path d="M225 145 Q240 135 255 145" fill="none" stroke="#000000" stroke-width="2"/>
  
  <!-- Shirt collar -->
  <path d="M150 280 L130 320 L270 320 L250 280 Z" fill="#3a86ff"/>
</svg>
